<svg width="16" height="16" viewBox="0 0 16 16" fill="none" xmlns="http://www.w3.org/2000/svg">
<rect width="16" height="16" fill="#1E1E1E"/>
<path d="M12.75 9.29904L6.75 12.7631C6.06871 13.1565 5.60685 13.4216 5.2538 13.5611C4.90495 13.6989 4.79945 13.6577 4.75 13.6292C4.70055 13.6006 4.61216 13.5298 4.55708 13.1588C4.50133 12.7833 4.5 12.2508 4.5 11.4641V4.5359C4.5 3.74921 4.50133 3.21668 4.55708 2.84119C4.61216 2.47018 4.70055 2.39939 4.75 2.37084C4.79945 2.34228 4.90495 2.30113 5.2538 2.43894C5.60685 2.5784 6.06871 2.84352 6.75 3.23686L12.75 6.70096C13.4313 7.09431 13.8918 7.36173 14.1891 7.59775C14.4829 7.83095 14.5 7.9429 14.5 8C14.5 8.0571 14.4829 8.16905 14.1891 8.40225C13.8918 8.63827 13.4313 8.90569 12.75 9.29904Z" stroke="#EBEBEB"/>
</svg>
